<?xml version="1.0" encoding="UTF-8"?> <svg xmlns="http://www.w3.org/2000/svg" width="596" height="100" viewBox="0 0 596 100" fill="none"> <path d="M54.6 22.8C46.6 16.7 38.9 16.2 34.9 16.2C14.9 16.2 0 31 0 50.9C0 70.2 14.7 85.2 34.5 85.2C39.5 85.2 47.2 84 54.6 78.7V69.5C53.4 70.7 50.7 73.2 46.9 75.1C43.4 76.9 39 78.2 34.5 78.2C22.3 78.2 7.6 69.1 7.6 51C7.6 35.6 19 23.2 34.4 23.2C38.3 23.2 42.4 24.2 45.9 25.8C49.3 27.4 52.5 29.9 54.6 32V22.8Z" fill="white"></path> <path d="M99.3484 85.2C118.648 85.2 134.048 70.5 134.048 50.7C134.048 30.8 118.548 16.2 99.3484 16.2C80.1484 16.2 64.6484 30.8 64.6484 50.7C64.6484 70.5 80.0484 85.2 99.3484 85.2ZM99.3484 23.2C114.348 23.2 126.448 35.4 126.448 50.7C126.448 66 114.348 78.2 99.3484 78.2C84.3484 78.2 72.2484 66 72.2484 50.7C72.2484 35.4 84.3484 23.2 99.3484 23.2Z" fill="white"></path> <path d="M283.2 17.3H248.6V84H283.2V77H256V51.1H282.4V44.1H256V24.3H283.2V17.3Z" fill="white"></path> <path d="M304.242 84V32.5L356.242 87V17.3H348.842V69L296.842 14.5V84H304.242Z" fill="white"></path> <path d="M406.005 24.3V17.3H366.205V24.3H382.405V84H389.805V24.3H406.005Z" fill="white"></path> <path d="M408.607 80C408.607 82.7 410.907 85 413.607 85C416.307 85 418.607 82.7 418.607 80C418.607 77.3 416.307 75 413.607 75C410.907 75 408.607 77.3 408.607 80Z" fill="white"></path> <path d="M433.561 17.3V84H440.961V55H447.461C462.661 55 468.561 45.7 468.561 36.3C468.561 32.1 467.361 26.2 462.461 22C457.961 18.1 452.361 17.3 445.661 17.3H433.561ZM440.961 24.3H446.461C451.261 24.3 461.161 25.3 461.161 35.9C461.161 43.6 455.861 48 447.061 48H440.961V24.3Z" fill="white"></path> <path d="M479.166 17.3V84H486.566V54.8H488.466L508.766 84H517.766L496.566 54.2C506.666 53.5 513.366 46 513.366 35.8C513.366 28.7 509.966 23.6 506.066 21C501.066 17.6 494.366 17.3 489.866 17.3H479.166ZM486.566 24.3H491.066C494.266 24.3 497.666 24.5 500.666 26.2C504.866 28.6 505.966 32.3 505.966 36C505.966 43.8 500.466 48.2 491.266 48.2H486.566V24.3Z" fill="white"></path> <path d="M560.462 85.2C579.762 85.2 595.162 70.5 595.162 50.7C595.162 30.8 579.662 16.2 560.462 16.2C541.262 16.2 525.762 30.8 525.762 50.7C525.762 70.5 541.162 85.2 560.462 85.2ZM560.462 23.2C575.462 23.2 587.562 35.4 587.562 50.7C587.562 66 575.462 78.2 560.462 78.2C545.462 78.2 533.362 66 533.362 50.7C533.362 35.4 545.462 23.2 560.462 23.2Z" fill="white"></path> <path d="M169.307 81H181.457C192.167 81 197.927 78.75 203.417 74.07C207.737 70.38 213.947 63.63 213.947 51.03C213.947 40.23 209.177 32.58 203.687 27.99C196.127 21.6 187.577 20.97 181.547 20.97H169.307V81ZM175.967 27.27H181.817C197.027 27.27 207.107 36.63 207.107 51.03C207.107 59.58 203.507 65.52 199.007 69.3C193.157 74.16 186.587 74.7 181.817 74.7H175.967V27.27Z" fill="#E53935"></path> <path d="M215 7V2.18557e-06H230C235.523 2.18557e-06 240 4.47715 240 10V25H233V10C233 8.34315 231.657 7 230 7H215Z" fill="#E53935"></path> <path d="M165 7H150C148.343 7 147 8.34315 147 10V25H140V10C140 4.47716 144.477 2.18557e-06 150 2.18557e-06L165 0V7Z" fill="#E53935"></path> <path d="M165 93V100H150C144.477 100 140 95.5229 140 90V75H147V90C147 91.6569 148.343 93 150 93H165Z" fill="#E53935"></path> <path d="M215 100V93H230C231.657 93 233 91.6569 233 90V75H240V90C240 95.5228 235.523 100 230 100H215Z" fill="#E53935"></path> </svg> 