<?xml version="1.0" encoding="UTF-8"?> <svg xmlns="http://www.w3.org/2000/svg" width="672" height="140" viewBox="0 0 672 140" fill="none"> <path d="M0 0H672V140H0V0Z" fill="#010101"></path> <path d="M92.6 42.8C84.6 36.7 76.9 36.2 72.9 36.2C52.9 36.2 38 51 38 70.9C38 90.2 52.7 105.2 72.5 105.2C77.5 105.2 85.2 104 92.6 98.7V89.5C91.4 90.7 88.7 93.2 84.9 95.1C81.4 96.9 77 98.2 72.5 98.2C60.3 98.2 45.6 89.1 45.6 71C45.6 55.6 57 43.2 72.4 43.2C76.3 43.2 80.4 44.2 83.9 45.8C87.3 47.4 90.5 49.9 92.6 52V42.8Z" fill="white"></path> <path d="M137.348 105.2C156.648 105.2 172.048 90.5 172.048 70.7C172.048 50.8 156.548 36.2 137.348 36.2C118.148 36.2 102.648 50.8 102.648 70.7C102.648 90.5 118.048 105.2 137.348 105.2ZM137.348 43.2C152.348 43.2 164.448 55.4 164.448 70.7C164.448 86 152.348 98.2 137.348 98.2C122.348 98.2 110.248 86 110.248 70.7C110.248 55.4 122.348 43.2 137.348 43.2Z" fill="white"></path> <path d="M321.2 37.3H286.6V104H321.2V97H294V71.1H320.4V64.1H294V44.3H321.2V37.3Z" fill="white"></path> <path d="M342.242 104V52.5L394.242 107V37.3H386.842V89L334.842 34.5V104H342.242Z" fill="white"></path> <path d="M444.005 44.3V37.3H404.205V44.3H420.405V104H427.805V44.3H444.005Z" fill="white"></path> <path d="M446.607 100C446.607 102.7 448.907 105 451.607 105C454.307 105 456.607 102.7 456.607 100C456.607 97.3 454.307 95 451.607 95C448.907 95 446.607 97.3 446.607 100Z" fill="white"></path> <path d="M471.561 37.3V104H478.961V75H485.461C500.661 75 506.561 65.7 506.561 56.3C506.561 52.1 505.361 46.2 500.461 42C495.961 38.1 490.361 37.3 483.661 37.3H471.561ZM478.961 44.3H484.461C489.261 44.3 499.161 45.3 499.161 55.9C499.161 63.6 493.861 68 485.061 68H478.961V44.3Z" fill="white"></path> <path d="M517.166 37.3V104H524.566V74.8H526.466L546.766 104H555.766L534.566 74.2C544.666 73.5 551.366 66 551.366 55.8C551.366 48.7 547.966 43.6 544.066 41C539.066 37.6 532.366 37.3 527.866 37.3H517.166ZM524.566 44.3H529.066C532.266 44.3 535.666 44.5 538.666 46.2C542.866 48.6 543.966 52.3 543.966 56C543.966 63.8 538.466 68.2 529.266 68.2H524.566V44.3Z" fill="white"></path> <path d="M598.462 105.2C617.762 105.2 633.162 90.5 633.162 70.7C633.162 50.8 617.662 36.2 598.462 36.2C579.262 36.2 563.762 50.8 563.762 70.7C563.762 90.5 579.162 105.2 598.462 105.2ZM598.462 43.2C613.462 43.2 625.562 55.4 625.562 70.7C625.562 86 613.462 98.2 598.462 98.2C583.462 98.2 571.362 86 571.362 70.7C571.362 55.4 583.462 43.2 598.462 43.2Z" fill="white"></path> <path d="M207.307 101H219.457C230.167 101 235.927 98.75 241.417 94.07C245.737 90.38 251.947 83.63 251.947 71.03C251.947 60.23 247.177 52.58 241.687 47.99C234.127 41.6 225.577 40.97 219.547 40.97H207.307V101ZM213.967 47.27H219.817C235.027 47.27 245.107 56.63 245.107 71.03C245.107 79.58 241.507 85.52 237.007 89.3C231.157 94.16 224.587 94.7 219.817 94.7H213.967V47.27Z" fill="#E53935"></path> <path d="M253 27V20H268C273.523 20 278 24.4772 278 30V45H271V30C271 28.3432 269.657 27 268 27H253Z" fill="#E53935"></path> <path d="M203 27H188C186.343 27 185 28.3431 185 30V45H178V30C178 24.4772 182.477 20 188 20L203 20V27Z" fill="#E53935"></path> <path d="M203 113V120H188C182.477 120 178 115.523 178 110V95H185V110C185 111.657 186.343 113 188 113H203Z" fill="#E53935"></path> <path d="M253 120V113H268C269.657 113 271 111.657 271 110V95H278V110C278 115.523 273.523 120 268 120H253Z" fill="#E53935"></path> </svg> 